<svg width="240" height="326" viewBox="0 0 240 326" fill="none" xmlns="http://www.w3.org/2000/svg">
<g opacity="0.13">
<path d="M166.062 12.5906C166.976 14.2887 167.66 16.0543 168.172 17.8468C168.306 17.8265 168.434 17.7861 168.568 17.7659C180.798 16.0206 192.012 25.4817 193.623 38.8985C194.045 42.4228 193.745 45.8662 192.875 49.0604C195.145 48.4404 197.529 48.1911 199.972 48.3933C212.253 49.4243 221.306 61.2035 220.18 74.6944C219.976 77.1675 219.439 79.526 218.627 81.7228C220.756 82.1406 222.853 82.8886 224.848 84.014C228.952 86.3253 232.04 89.8564 233.977 94.0007C237.89 100.935 238.209 109.702 234.022 117.155C232.96 119.042 231.669 120.699 230.218 122.162C230.806 122.593 231.381 123.044 231.938 123.543C241.662 132.175 242.742 147.054 234.348 156.772C232.781 158.584 230.998 160.087 229.073 161.28C229.86 162.062 230.621 162.877 231.317 163.787C239.29 174.198 237.653 189.03 227.661 196.914C226.184 198.08 224.598 199.003 222.955 199.744C223.352 200.459 223.716 201.207 224.048 201.975C229.284 214.138 224.157 228.074 212.592 233.094C209.363 234.496 205.981 235.028 202.663 234.839C203.622 236.827 204.351 238.97 204.779 241.248C207.228 254.328 199.192 266.659 186.827 268.782C183.835 269.294 180.869 269.153 178.056 268.472C178.427 270.332 178.618 272.246 178.567 274.214C178.209 287.522 167.769 297.664 155.245 296.876C152.899 296.728 150.648 296.209 148.545 295.373C148.404 296.653 148.187 297.94 147.842 299.214C144.389 311.997 131.884 319.113 119.903 315.104C118.228 314.545 116.668 313.776 115.204 312.873C113.823 315.609 111.931 318.163 109.246 320.266C100.558 327.079 88.6662 326.876 80.6556 319.208C80.208 318.777 79.7797 318.332 79.3705 317.874C78.9166 318.237 78.4627 318.601 77.9768 318.938C67.4408 326.162 53.5612 322.833 46.9698 311.499C45.7168 309.336 44.8217 307.044 44.2591 304.693C42.9997 305.036 41.7083 305.292 40.3721 305.407C27.867 306.472 17.1648 296.552 16.468 283.264C16.3017 280.13 16.7301 277.091 17.6123 274.261C15.9117 273.829 14.2303 273.21 12.6129 272.347C1.45035 266.363 -2.73718 251.989 3.25963 240.257C4.5063 237.825 6.10458 235.709 7.93304 233.916C6.92931 233.027 5.97673 232.05 5.11365 230.958C-2.88423 220.823 -1.33069 205.87 8.58514 197.561C10.567 195.903 12.7343 194.65 14.9911 193.76C14.2431 192.547 13.5718 191.26 13.0348 189.879C8.25909 177.722 13.9682 163.921 25.7892 159.056C27.7839 158.234 29.8233 157.749 31.8563 157.52C31.5495 156.3 31.3129 155.06 31.1915 153.773C29.9959 140.693 39.298 129.251 51.9693 128.22C54.9549 127.977 57.8511 128.348 60.5618 129.204C60.4275 127.694 60.4147 126.158 60.5618 124.594C61.8212 111.542 73.086 102.249 85.7254 103.839C86.8122 103.974 87.8671 104.217 88.9028 104.5C89.964 92.8484 99.0807 84.0881 110.147 83.4951C111.036 75.8737 115.537 69.1013 122.218 65.4691C119.552 56.6617 122.083 46.5064 129.404 39.9227C129.468 39.8621 129.538 39.8149 129.602 39.761C129.116 33.1908 122.825 24.8752 112.538 17.5637C107.571 14.0327 108.498 6.14843 114.143 4.02574C138.188 -5.02432 160.698 2.65102 166.049 12.5906H166.062Z" fill="black"/>
<path d="M187.748 152.735C187.748 175.324 181.604 196.409 170.972 214.226C151.562 246.801 117.173 268.445 77.9832 268.445C72.4466 268.445 66.9165 269.375 63.8542 266.148C59.3598 261.72 53.5803 240.824 53.5803 222.926C53.5803 196.665 70.5031 174.724 90.8654 165.094C123.822 149.508 155.296 124.062 162.284 95.2881C163.498 90.2745 170.262 89.8567 172.749 94.3244C182.282 111.468 187.748 131.434 187.748 152.742V152.735Z" fill="black"/>
<path d="M50.0959 222.925C50.0959 193.518 69.8573 171.004 89.4396 161.745C127.006 143.982 152.975 118.799 158.908 94.3781C159.784 90.7661 162.565 88.192 166.164 87.6596C170.045 87.0868 173.804 88.9737 175.748 92.4643C185.874 110.666 191.226 131.508 191.226 152.735C191.226 175.269 185.242 197.204 173.913 216.18C153.045 251.201 117.18 272.118 77.9766 272.118C76.9793 272.118 75.9884 272.151 75.0102 272.178C70.0619 272.333 64.9473 272.495 61.3863 268.748C55.7283 263.176 50.0896 240.439 50.0896 222.925H50.0959ZM184.263 152.735C184.263 132.809 179.245 113.253 169.744 96.1773C169.163 95.1328 168.018 94.7959 167.136 94.9307C166.331 95.052 165.832 95.4765 165.659 96.1975C159.208 122.768 131.782 149.777 92.2974 168.443C74.7609 176.732 57.0645 196.793 57.0645 222.925C57.0645 241.127 63.0933 260.372 66.2324 263.465C67.7476 265.062 71.1807 264.955 74.812 264.84C75.8605 264.806 76.9218 264.773 77.983 264.773C114.769 264.773 148.43 245.143 168.025 212.271C178.65 194.468 184.263 173.881 184.263 152.735Z" fill="white"/>
<path d="M53.5805 222.925C53.5805 206.766 59.9929 192.251 69.6658 181.226C73.4953 177.978 77.344 176.59 80.8027 177.594C87.9759 179.677 91.5688 191.496 90.808 207.009C101.772 197.972 112.328 194.495 117.947 199.172C123.215 203.558 122.883 214.051 118.049 226.342C127.505 226.497 134.435 229.361 136.411 234.833C138.789 241.41 133.463 250.177 123.445 258.075C109.591 264.732 94.2028 268.445 77.9833 268.445C72.4468 268.445 66.9167 269.375 63.8544 266.147C59.3599 261.72 53.5805 240.823 53.5805 222.925Z" fill="black"/>
<path d="M50.0965 222.925C50.0965 206.934 56.1381 191.24 67.1088 178.733L67.486 178.362C73.6234 173.16 78.6165 173.147 81.73 174.05C89.2548 176.24 93.7812 185.701 94.3374 199.879C104.918 192.837 114.291 191.442 120.108 196.281C125.869 201.072 126.847 210.661 122.953 222.986C131.712 224.064 137.568 227.717 139.665 233.519C142.58 241.605 137.434 251.619 125.53 261.006L125.229 261.242L124.89 261.403C110.109 268.506 94.3246 272.104 77.9836 272.104C76.9863 272.104 75.9953 272.138 75.0172 272.165C70.0688 272.32 64.9543 272.482 61.3933 268.735C55.7353 263.162 50.0965 240.426 50.0965 222.912V222.925ZM72.0443 183.922C62.3842 195.027 57.0651 208.868 57.0651 222.925C57.0651 241.127 63.0939 260.372 66.2329 263.465C67.7481 265.062 71.1812 264.955 74.8126 264.84C75.861 264.806 76.9223 264.773 77.9836 264.773C93.1994 264.773 107.891 261.45 121.662 254.894C130.286 248.007 134.8 240.668 133.157 236.133C131.821 232.427 126.15 230.136 117.992 230.001L112.865 229.92L114.828 224.927C119.092 214.091 119.469 205.108 115.787 202.049C111.823 198.754 102.649 201.907 92.95 209.899L86.9341 214.859L87.324 206.82C88.0017 192.945 85.0033 182.628 79.8696 181.132C77.1589 180.344 74.1541 182.17 72.0379 183.922H72.0443Z" fill="white"/>
<path d="M31.4726 315.771C31.4726 305.663 52.7491 269.726 63.0166 265.467C65.1071 264.598 67.4598 265.683 68.2845 267.886C69.1093 270.09 68.08 272.576 65.9894 273.439C59.2062 276.256 39.5919 309.215 39.5919 315.778C39.5919 318.143 37.7699 320.064 35.5258 320.064C33.2818 320.064 31.4598 318.143 31.4598 315.778L31.4726 315.771Z" fill="white"/>
<path d="M189.544 82.7472C189.544 87.2318 192.993 90.8674 197.248 90.8674C201.503 90.8674 204.952 87.2318 204.952 82.7472C204.952 78.2626 201.503 74.6271 197.248 74.6271C192.993 74.6271 189.544 78.2626 189.544 82.7472Z" fill="white"/>
<path d="M165.493 54.2088C165.493 58.6934 168.942 62.3289 173.197 62.3289C177.452 62.3289 180.901 58.6934 180.901 54.2088C180.901 49.7242 177.452 46.0887 173.197 46.0887C168.942 46.0887 165.493 49.7242 165.493 54.2088Z" fill="white"/>
<path d="M139.134 35.9533C139.134 40.4379 142.583 44.0735 146.838 44.0735C151.093 44.0735 154.542 40.4379 154.542 35.9533C154.542 31.4687 151.093 27.8332 146.838 27.8332C142.583 27.8332 139.134 31.4687 139.134 35.9533Z" fill="white"/>
<path d="M137.964 74.9707C137.964 79.4553 141.413 83.0908 145.668 83.0908C149.923 83.0908 153.372 79.4553 153.372 74.9707C153.372 70.4861 149.923 66.8506 145.668 66.8506C141.413 66.8506 137.964 70.4861 137.964 74.9707Z" fill="white"/>
<path d="M125.037 102.336C125.037 106.821 128.486 110.457 132.741 110.457C136.996 110.457 140.445 106.821 140.445 102.336C140.445 97.8518 136.996 94.2163 132.741 94.2163C128.486 94.2163 125.037 97.8518 125.037 102.336Z" fill="white"/>
<path d="M102.399 122.923C102.399 127.408 105.848 131.044 110.102 131.044C114.357 131.044 117.806 127.408 117.806 122.923C117.806 118.439 114.357 114.803 110.102 114.803C105.848 114.803 102.399 118.439 102.399 122.923Z" fill="white"/>
<path d="M73.297 143.921C73.297 148.405 76.7461 152.041 81.0008 152.041C85.2555 152.041 88.7046 148.405 88.7046 143.921C88.7046 139.436 85.2555 135.801 81.0008 135.801C76.7461 135.801 73.297 139.436 73.297 143.921Z" fill="white"/>
<path d="M48.0504 167.648C48.0504 172.132 51.4995 175.768 55.7542 175.768C60.0089 175.768 63.458 172.132 63.458 167.648C63.458 163.163 60.0089 159.527 55.7542 159.527C51.4995 159.527 48.0504 163.163 48.0504 167.648Z" fill="white"/>
<path d="M30.7118 198.134C30.7118 202.619 34.1609 206.254 38.4156 206.254C42.6703 206.254 46.1194 202.619 46.1194 198.134C46.1194 193.649 42.6703 190.014 38.4156 190.014C34.1609 190.014 30.7118 193.649 30.7118 198.134Z" fill="white"/>
<path d="M23.3663 232.683C23.3663 237.167 26.8155 240.803 31.0701 240.803C35.3248 240.803 38.7739 237.167 38.7739 232.683C38.7739 228.198 35.3248 224.563 31.0701 224.563C26.8155 224.563 23.3663 228.198 23.3663 232.683Z" fill="white"/>
<path d="M30.6034 266.195C30.6034 270.679 34.0525 274.315 38.3072 274.315C42.5619 274.315 46.011 270.679 46.011 266.195C46.011 261.71 42.5619 258.075 38.3072 258.075C34.0525 258.075 30.6034 261.71 30.6034 266.195Z" fill="white"/>
<path d="M55.3771 292.516C55.3771 297 58.8262 300.636 63.0809 300.636C67.3356 300.636 70.7847 297 70.7847 292.516C70.7847 288.031 67.3356 284.396 63.0809 284.396C58.8262 284.396 55.3771 288.031 55.3771 292.516Z" fill="white"/>
<path d="M83.1491 300.939C83.1491 305.424 86.5982 309.059 90.8528 309.059C95.1075 309.059 98.5566 305.424 98.5566 300.939C98.5566 296.454 95.1075 292.819 90.8528 292.819C86.5982 292.819 83.1491 296.454 83.1491 300.939Z" fill="white"/>
<path d="M113.082 296.033C113.082 300.518 116.531 304.153 120.786 304.153C125.041 304.153 128.49 300.518 128.49 296.033C128.49 291.549 125.041 287.913 120.786 287.913C116.531 287.913 113.082 291.549 113.082 296.033Z" fill="white"/>
<path d="M142.689 279.537C142.689 284.022 146.138 287.657 150.392 287.657C154.647 287.657 158.096 284.022 158.096 279.537C158.096 275.052 154.647 271.417 150.392 271.417C146.138 271.417 142.689 275.052 142.689 279.537Z" fill="white"/>
<path d="M169.508 253.196C169.508 257.68 172.957 261.316 177.212 261.316C181.467 261.316 184.916 257.68 184.916 253.196C184.916 248.711 181.467 245.075 177.212 245.075C172.957 245.075 169.508 248.711 169.508 253.196Z" fill="white"/>
<path d="M191.053 218.748C191.053 223.232 194.502 226.868 198.757 226.868C203.012 226.868 206.461 223.232 206.461 218.748C206.461 214.263 203.012 210.627 198.757 210.627C194.502 210.627 191.053 214.263 191.053 218.748Z" fill="white"/>
<path d="M201.877 186.327C201.877 190.812 205.326 194.448 209.581 194.448C213.835 194.448 217.284 190.812 217.284 186.327C217.284 181.843 213.835 178.207 209.581 178.207C205.326 178.207 201.877 181.843 201.877 186.327Z" fill="white"/>
<path d="M206.026 149.885C206.026 154.369 209.475 158.005 213.73 158.005C217.984 158.005 221.434 154.369 221.434 149.885C221.434 145.4 217.984 141.764 213.73 141.764C209.475 141.764 206.026 145.4 206.026 149.885Z" fill="white"/>
<path d="M202.471 114.23C202.471 118.715 205.92 122.35 210.175 122.35C214.43 122.35 217.879 118.715 217.879 114.23C217.879 109.746 214.43 106.11 210.175 106.11C205.92 106.11 202.471 109.746 202.471 114.23Z" fill="white"/>
</g>
</svg>
